<?xml version="1.0" encoding="utf-8"?>
<!-- Generator: Adobe Illustrator 28.2.0, SVG Export Plug-In . SVG Version: 6.00 Build 0)  -->
<svg version="1.1" id="Layer_1" xmlns="http://www.w3.org/2000/svg" xmlns:xlink="http://www.w3.org/1999/xlink" x="0px" y="0px"
	 viewBox="0 0 310.31 394.3" style="enable-background:new 0 0 310.31 394.3;" xml:space="preserve">
<style type="text/css">
	.st0{fill:#48484A;}
	.st1{fill:#B27539;}
	.st2{fill:#CD9E72;}
	.st3{fill:#2E2E2F;}
	.st4{fill:none;stroke:#000000;stroke-width:7;stroke-miterlimit:10;}
	.st5{fill:none;stroke:#000000;stroke-width:3;stroke-linecap:round;stroke-linejoin:round;stroke-miterlimit:10;}
	.st6{fill:#FFFFFF;}
</style>
<path d="M9.07,33.02c-0.18-16.54,0-21.58,0-21.58l3.07,3.96L10.57,4.61l17.92,17.26L9.07,33.02z"/>
<path d="M295.69,37.56c0.2-16.54,0-21.58,0-21.58l-3.39,3.96l1.74-10.79l-19.81,17.26L295.69,37.56z"/>
<g id="XMLID_00000001630664485652364170000005379889800823258799_">
	<g>
		<path class="st0" d="M266.29,192.17c4.17-5.05,8.49-10.38,9.81-16.8c1.32-6.42-1.49-14.2-7.74-16.18
			c5.25-7.8,10.26-15.76,15.04-23.85c-3.24-0.47-6.48-0.94-9.72-1.4c6.68-6.56,6.15-17.24,5.75-26.6
			c-0.99-22.81,1.59-45.61,4.17-68.3c0.5-4.45,1.54-9.45,3.49-13.57c3.54,2.1,5.73,8.05,5.06,15.75
			c-1.41,16.22-6.35,50.79-2.82,69.13s8,30.33,1.53,36.68c-6.47,6.35-8.58,28.92-11.4,32.45c-2.82,3.52-11.27,14.08-11.29,14.11
			L266.29,192.17z"/>
		<path class="st0" d="M271.26,254.48c-1.37,2.37-2.7,4.76-4.14,7.08c-2.73,4.41-3.66,15.51-7.75,18.75
			c-5.48,4.34-11.13,9.63-14.63,15.93l-2.7-1.01c-0.81-2.79-1.81-5.63-3.8-7.75c-1.47-1.57-3.61-2.64-5.72-2.64l-0.09-2.85
			c6.59-0.12,12.83-6.11,14.68-12.8c2.2-7.99,0.08-16.43-1.6-24.54c-0.31-1.45-0.59-2.93-0.46-4.41c0.43-4.73,4.83-7.95,7.3-12.01
			c2.48-4.07,2.98-9.06,2.69-13.81c-0.86-13.78-8.28-27-19.59-34.9c0.61-2.25,2.89-3.92,5.22-3.83c-0.54-5.86-3.6-11.45-8.24-15.06
			c10.77,2.33,20.85,7.71,28.78,15.35c-2.46,0.6-4.92,1.21-7.37,1.81c1.46,4.74,6.69,7.99,11.58,7.2c0.29,2.4,0.58,4.79,0.87,7.18
			l1.88,1.42c-0.6,0.74,2.53,11.25,2.68,12.52c1.2,10.03,2.36,22.42-1.28,31.99c2.33-1.69,4.65-3.37,6.98-5.05
			c-0.35,1.33-2.39,7.59-3.8,9.19c-2.71,3.05-3.28,7.94-4.87,11.62c2.41-1.87,4.83-3.74,7.24-5.61
			C274.34,250.62,272.28,252.72,271.26,254.48z"/>
		<path class="st0" d="M228.65,281.4c1.26,0.44,2.53,0.63,3.78,0.59l0.09,2.85c-0.74,0-1.47,0.13-2.17,0.42
			c-2.67,1.1-4.07,4.16-4.27,7.05c-0.2,2.89,0.54,5.75,0.88,8.62c0.99,8.43-1.61,17.22-7.02,23.76c-2.56-1.92-4.16-4.88-6.64-6.9
			c-1.77-1.45-4.45-2.19-6.49-1.53c-0.55-10.33-1.88-20.62-4.01-30.74c-1.15-5.53-1.89-12.67,3-15.5c3.92-2.26,8.93,0.04,12.3,3.04
			C221.48,276.07,224.39,279.91,228.65,281.4z"/>
		<path class="st0" d="M207.05,331.43c0.65,3.86,1.29,7.72,1.93,11.58c-0.82-0.19-1.64-0.36-2.46-0.51
			C206.8,338.82,206.98,335.12,207.05,331.43z"/>
		<path class="st1" d="M206.81,316.26c0.27,5.05,0.36,10.11,0.24,15.17c-0.76-4.56-1.52-9.12-2.28-13.68
			C205.29,317,206,316.51,206.81,316.26z"/>
		<path class="st0" d="M204.2,131.92c-2.53-0.28-3.57-3.3-5.09-5.35c-5.31-7.14-18.71-3.36-23.6-10.8l-0.01-0.2
			c9.06-0.51,17.34-0.75,22.78-0.28C200.79,120.63,202.77,126.2,204.2,131.92z"/>
		<path class="st2" d="M215.86,379.11c-8.22-0.27-14.79-0.88-19.56-1.48c0.19-0.14,0.39-0.28,0.58-0.41
			c6.53-4.58,13.17-11.67,11.29-19.42c-1.63-6.72-10.54-10.42-16.45-6.84c2.34-5.2,9.57-7.47,14.46-4.52
			c0.13-1.31,0.24-2.63,0.34-3.94c0.82,0.15,1.64,0.32,2.46,0.51c-0.64-3.86-1.28-7.72-1.93-11.58c0.12-5.06,0.03-10.12-0.24-15.17
			c2.04-0.66,4.72,0.08,6.49,1.53c2.48,2.02,4.08,4.98,6.64,6.9c5.41-6.54,8.01-15.33,7.02-23.76c-0.34-2.87-1.08-5.73-0.88-8.62
			c0.2-2.89,1.6-5.95,4.27-7.05c0.7-0.29,1.43-0.42,2.17-0.42c2.11,0,4.25,1.07,5.72,2.64c1.99,2.12,2.99,4.96,3.8,7.75l2.7,1.01
			c-1.17,2.11-2.09,4.32-2.7,6.65c-4.19,16.16-8.23,18.2-8.23,22.99C233.81,330.66,234.41,379.71,215.86,379.11z"/>
		<path class="st0" d="M175.5,115.57l0.01,0.2c-0.07,4.56-0.14,9.12-0.22,13.68c-7.24-4.13-16.32-1.63-24.16,1.19
			c-8.41,3.03-16.87,6.41-23.85,11.99c-0.88,0.71-1.77,1.49-2.23,2.52c-1.58,3.48,2.23,7.87,0.28,11.15
			c-8.28-2.34-16.71-4.18-25.22-5.49c1.45-3.92,8.73-2.72,9.97-6.71c0.8-2.55-1.69-4.86-3.88-6.39c4.16-2.48,8.32-4.96,12.49-7.44
			c0.95-0.57,1.99-1.25,2.28-2.32c0.23-0.88-0.11-1.8-0.17-2.71c-0.19-2.97,2.46-5.22,4.31-7.55c0.04-0.04,0.07-0.09,0.11-0.14
			c1.09,0.3,2.18,0.49,3.28,0.56C136.47,118.58,157.52,116.55,175.5,115.57z"/>
		<path class="st1" d="M119.69,320.73l0.39-0.23c-0.34-2.99-2.31-5.49-4.06-7.93c-3.66-5.1-6.74-10.95-6.86-17.22
			c-0.11-6.28,3.49-12.95,9.51-14.71c1.59-0.46,3.42-0.54,4.79,0.39c0.69,0.46,1.2,1.14,1.64,1.83c3.25,5.09,3.36,11.48,3.78,17.5
			c0.82,11.7,3.17,23.95,5.52,35.44c7.99-2.59,9.95-13.89,17.53-17.49c0.88-0.42,1.89-0.72,2.82-0.44c1.93,0.59,2.31,3.12,2.33,5.14
			c0.06,5.5,0.12,11,0.18,16.5c0.02,2.14,0.11,4.47,1.47,6.13c2.71,3.29,7.94,1.63,11.92,0.09c11.34-4.41,23.93-5.53,35.87-3.23
			c-0.1,1.31-0.21,2.63-0.34,3.94c-4.89-2.95-12.12-0.68-14.46,4.52c5.91-3.58,14.82,0.12,16.45,6.84
			c1.88,7.75-4.76,14.84-11.29,19.42c-0.19,0.13-0.39,0.27-0.58,0.41c-6-0.77-9.15-1.51-9.15-1.51s-28.12,14.96-43.07-4.18
			C129.21,352.89,128.54,335.63,119.69,320.73z"/>
		<path class="st3" d="M19.59,84.25c-1.84-21.16-15.8-70.54,0-63.49c15.8,7.06,64.47,37.39,75.05,59.26
			c9.61,19.85,19.8,34.48,30.58,37.53c-0.04,0.05-0.07,0.1-0.11,0.14c-1.85,2.33-4.5,4.58-4.31,7.55c0.06,0.91,0.4,1.83,0.17,2.71
			c-0.29,1.07-1.33,1.75-2.28,2.32c-4.17,2.48-8.33,4.96-12.49,7.44c2.19,1.53,4.68,3.84,3.88,6.39c-1.24,3.99-8.52,2.79-9.97,6.71
			c8.51,1.31,16.94,3.15,25.22,5.49c1.95-3.28-1.86-7.67-0.28-11.15c0.46-1.03,1.35-1.81,2.23-2.52
			c6.98-5.58,15.44-8.96,23.85-11.99c7.84-2.82,16.92-5.32,24.16-1.19c0.08-4.56,0.15-9.12,0.22-13.68
			c4.89,7.44,18.29,3.66,23.6,10.8c1.52,2.05,2.56,5.07,5.09,5.35c-1.43-5.72-3.41-11.29-5.92-16.63c0.02,0,0.03,0,0.05,0
			c21.87-43.74,64.2-60.67,74.07-79.71c5.19-10.01,10.77-12.42,14.69-10.11c-1.95,4.12-2.99,9.12-3.49,13.57
			c-2.58,22.69-5.16,45.49-4.17,68.3c0.4,9.36,0.93,20.04-5.75,26.6c3.24,0.46,6.48,0.93,9.72,1.4
			c-4.78,8.09-9.79,16.05-15.04,23.85c6.25,1.98,9.06,9.76,7.74,16.18c-1.32,6.42-5.64,11.75-9.81,16.8
			c-0.29-2.39-0.58-4.78-0.87-7.18c-4.89,0.79-10.12-2.46-11.58-7.2c2.45-0.6,4.91-1.21,7.37-1.81
			c-7.93-7.64-18.01-13.02-28.78-15.35c4.64,3.61,7.7,9.2,8.24,15.06c-2.33-0.09-4.61,1.58-5.22,3.83
			c11.31,7.9,18.73,21.12,19.59,34.9c0.29,4.75-0.21,9.74-2.69,13.81c-2.47,4.06-6.87,7.28-7.3,12.01
			c-0.13,1.48,0.15,2.96,0.46,4.41c1.68,8.11,3.8,16.55,1.6,24.54c-1.85,6.69-8.09,12.68-14.68,12.8c-1.25,0.04-2.52-0.15-3.78-0.59
			c-4.26-1.49-7.17-5.33-10.55-8.34c-3.37-3-8.38-5.3-12.3-3.04c-4.89,2.83-4.15,9.97-3,15.5c2.13,10.12,3.46,20.41,4.01,30.74
			c-0.81,0.25-1.52,0.74-2.04,1.49c0.76,4.56,1.52,9.12,2.28,13.68c-0.07,3.69-0.25,7.39-0.53,11.07
			c-11.94-2.3-24.53-1.18-35.87,3.23c-3.98,1.54-9.21,3.2-11.92-0.09c-1.36-1.66-1.45-3.99-1.47-6.13c-0.06-5.5-0.12-11-0.18-16.5
			c-0.02-2.02-0.4-4.55-2.33-5.14c-0.93-0.28-1.94,0.02-2.82,0.44c-7.58,3.6-9.54,14.9-17.53,17.49
			c-2.35-11.49-4.7-23.74-5.52-35.44c-0.42-6.02-0.53-12.41-3.78-17.5c-0.44-0.69-0.95-1.37-1.64-1.83
			c-1.37-0.93-3.2-0.85-4.79-0.39c-6.02,1.76-9.62,8.43-9.51,14.71c0.12,6.27,3.2,12.12,6.86,17.22c1.75,2.44,3.72,4.94,4.06,7.93
			l-0.39,0.23c-0.04-0.08-0.09-0.16-0.14-0.24c-8.97-14.95-27.51-25.72-33.49-29.91c-5.99-4.18-24.29-28.12-26.1-33.25
			c12.67,1.51,0.3-6.34-5.13-11.16c10.56-2.12,12.67-13.58,11.77-22.03c-0.91-8.44-10.86-12.13-13.88-23.26
			c-3.02-11.13-3.93-15.05-3.93-15.05C24.8,171.72,24.8,142.8,24.8,130.81C24.8,130.81,21.43,105.41,19.59,84.25z"/>
	</g>
	<g>
		<path class="st4" d="M119.69,320.73c-0.04-0.08-0.09-0.16-0.14-0.24c-8.97-14.95-27.51-25.72-33.49-29.91
			c-5.99-4.18-24.29-28.12-26.1-33.25c12.67,1.51,0.3-6.34-5.13-11.16c10.56-2.12,12.67-13.58,11.77-22.03
			c-0.91-8.44-10.86-12.13-13.88-23.26c-3.02-11.13-3.93-15.05-3.93-15.05C24.8,171.72,24.8,142.8,24.8,130.81
			c0,0-3.37-25.4-5.21-46.56s-15.8-70.54,0-63.49c15.8,7.06,64.47,37.39,75.05,59.26c9.61,19.85,19.8,34.48,30.58,37.53
			c1.09,0.3,2.18,0.49,3.28,0.56c7.97,0.47,29.02-1.56,47-2.54c9.06-0.51,17.34-0.75,22.78-0.28c0.02,0,0.03,0,0.05,0
			c21.87-43.74,64.2-60.67,74.07-79.71c5.19-10.01,10.77-12.42,14.69-10.11c3.54,2.1,5.73,8.05,5.06,15.75
			c-1.41,16.22-6.35,50.79-2.82,69.13s8,30.33,1.53,36.68c-6.47,6.35-8.58,28.92-11.4,32.45c-2.82,3.52-11.27,14.08-11.29,14.11
			c-0.6,0.74,2.53,11.25,2.68,12.52c1.2,10.03,2.36,22.42-1.28,31.99c2.33-1.69,4.65-3.37,6.98-5.05c-0.35,1.33-2.39,7.59-3.8,9.19
			c-2.71,3.05-3.28,7.94-4.87,11.62c2.41-1.87,4.83-3.74,7.24-5.61c-0.78,2.37-2.84,4.47-3.86,6.23c-1.37,2.37-2.7,4.76-4.14,7.08
			c-2.73,4.41-3.66,15.51-7.75,18.75c-5.48,4.34-11.13,9.63-14.63,15.93c-1.17,2.11-2.09,4.32-2.7,6.65
			c-4.19,16.16-8.23,18.2-8.23,22.99c0,4.78,0.6,53.83-17.95,53.23c-8.22-0.27-14.79-0.88-19.56-1.48c-6-0.77-9.15-1.51-9.15-1.51
			s-28.12,14.96-43.07-4.18C129.21,352.89,128.54,335.63,119.69,320.73z"/>
	</g>
</g>
<path d="M167.93,368.11c4.51,0.96,9.17,0.9,13.78,0.75c8.64-0.28,17.27-0.88,25.9-1.48c1.06-0.07,2.15-0.16,3.1-0.64
	c2.31-1.18,2.89-4.17,3.09-6.76c0.44-5.63-0.23-12.41-5.19-15.11c-1.92-1.05-4.17-1.26-6.36-1.39c-4.69-0.27-9.4-0.26-14.1-0.24
	c-6.11,0.02-12.22-0.01-18.32,0.06c-3.79,0.05-7.78,0.03-10.02,3.62C155.4,354.06,159.9,366.4,167.93,368.11z"/>
<circle cx="231.29" cy="221.1" r="13.91"/>
<circle cx="124.25" cy="227.5" r="13.91"/>
<circle class="st1" cx="125.42" cy="226.22" r="10.71"/>
<path class="st1" d="M144.02,200.72c0.15,0.99,0.39,1.98,0.55,2.98c0.24,1.55,0.25,3.23-0.56,4.57c-0.19,0.31-0.43,0.61-0.76,0.74
	c-0.31,0.12-0.65,0.09-0.98,0.03c-2.41-0.45-4.46-2.45-6.9-2.3c-0.72,0.04-1.4,0.28-2.11,0.42c-1.3,0.27-2.66,0.24-3.94-0.08
	c-0.16-0.04-0.32-0.09-0.43-0.21c-0.09-0.1-0.13-0.23-0.15-0.36c-0.43-1.95,0.85-3.83,2.06-5.42c1.11-1.45,2.21-2.91,3.32-4.36
	c0.19-0.25,0.39-0.52,0.42-0.84c0.09-1.15-2-1.55-1.87-2.7c0.07-0.66,0.87-0.97,1.54-0.94c1.53,0.07,2.89-0.23,4.41-0.23
	c2.65,0,5.44,1.01,5.49,4.01c0.01,1.01-0.19,2.01-0.2,3.01C143.89,199.61,143.94,200.17,144.02,200.72z"/>
<path class="st1" d="M220.2,195.22c-0.42,0.65-0.74,1.3-0.57,2.03c0.19,0.85,1.04,1.49,1.03,2.36c-0.01,0.82-0.8,1.43-1.6,1.6
	c-0.8,0.17-1.62,0.02-2.44,0.03c-1.62,0.02-3.17,0.66-4.72,1.14s-3.26,0.81-4.77,0.21c-0.54-0.21-1.07-0.58-1.27-1.13
	c-0.51-1.43,1.45-2.67,1.43-4.19c0-0.41-0.15-0.8-0.19-1.21c-0.07-0.91,0.44-1.76,0.99-2.49c0.55-0.73,1.17-1.46,1.36-2.35
	c0.19-0.89-0.24-2.01-1.13-2.19c1.32-1.1,2.63-1.59,4.4-1.59c2.66,0,10.09,2.08,8.54,6.03C221.01,194.09,220.57,194.65,220.2,195.22
	z"/>
<circle class="st1" cx="229.89" cy="219.71" r="10.71"/>
<path d="M189.45,337.95c-6.51,0.52-13.06,0.39-19.62,0.39c-4.83,0-8.3-0.46-11.73,3.43c-3.1,3.53-3.7,9.15-1.1,13.07
	s8.3,5.52,12.41,3.24c3.14-1.74,5.82-5.5,9.32-4.67c1.81,0.43,3.12,2.1,3.63,3.89s0.35,3.7,0.12,5.54
	c-0.21,1.72-0.48,3.47-0.14,5.17c0.34,1.7,1.45,3.36,3.12,3.82s3.75-0.8,3.67-2.53c1.49,0.89,3.24,1.33,4.97,1.25
	c2.06-3.04,0.53-7.31,1.83-10.74c0.87-2.28,2.86-3.91,4.78-5.42c0.96-0.76,1.95-1.53,3.13-1.86c1.18-0.32,2.6-0.07,3.32,0.92
	c0.46,0.64,0.56,1.46,0.87,2.19c1.19,2.82,5.46,3.27,7.77,1.27c2.31-2.01,2.76-5.54,1.88-8.47s-2.84-5.4-4.79-7.75
	c-0.99-1.2-2.02-2.41-3.37-3.18c-1.85-1.06-4.09-1.16-6.22-1.07C198.66,336.61,194.08,337.59,189.45,337.95z"/>
<path class="st1" d="M262.53,155.91c3.45-8.43,3.06-19.16,3.06-19.16s-3.83,16.6-7.66,15.2c-3.83-1.4-1.92-6,2.3-20.94
	s9.19-27.65,9.19-27.65l-11.88,14.62c0,0-1.15-25.67,9.19-39.46c10.34-13.79,14.56-33.33,14.56-33.33s-7.28,37.55-3.45,55.36
	c3.83,17.81-1.15,31.22-1.15,31.22l4.6-2.3L262.53,155.91z"/>
<path class="st1" d="M72.86,158.67c-6.43-7.32-7.99-17.95-7.99-17.95s8.55,15.23,13.61,12.8c5.05-2.43,1.5-6.42-7.27-19.91
	s-18.16-24.59-18.16-24.59l19.35,11.07c0,0-3.39-25.5-20.46-36.17S25.24,55.24,25.24,55.24s17.42,34.82,15.56,53.35
	s7.67,30.31,7.67,30.31l-6.84-0.99L72.86,158.67z"/>
<path class="st5" d="M105.54,221.61c3.08-2.37,6.19-4.77,9.74-6.34c3.55-1.57,7.64-2.26,11.35-1.1c5.54,1.74,9.08,7.16,11.16,12.58
	s3.2,11.26,6.2,16.23"/>
<path class="st5" d="M212.72,235.77c1.44-7.84,4.69-15.35,9.43-21.77c1.37-1.86,2.95-3.69,5.1-4.55c1.35-0.54,2.83-0.64,4.28-0.75
	c4.71-0.33,9.83-0.55,13.73,2.11"/>
<circle cx="229.89" cy="217.91" r="8.2"/>
<circle cx="125.9" cy="223.88" r="8.37"/>
<circle class="st6" cx="125.54" cy="223.52" r="1.29"/>
<circle class="st6" cx="226.51" cy="217.91" r="1.29"/>
<path class="st1" d="M85.63,250.52c0.78,1.05,0.91,2.7-0.06,3.56c-0.91,0.8-2.27,0.61-3.48,0.67s-2.67,0.85-2.46,2.05
	c0.15,0.85,1.06,1.3,1.85,1.67c2.62,1.23,4.97,3.04,6.82,5.27c0.2,0.24,0.39,0.49,0.46,0.79c0.13,0.64-0.4,1.26-1.03,1.45
	s-1.29,0.08-1.93-0.04c2.09,2.17,5.09,3.44,8.1,3.42c0.91-1.21,0.92-2.89,0.53-4.36c-2.16-8.15-3.02-22.1-14.81-18.04
	C81.53,248.01,84.25,248.68,85.63,250.52z"/>
<path class="st2" d="M254.32,249.52c-0.71,1.05-0.84,2.7,0.06,3.56c0.83,0.8,2.08,0.61,3.19,0.67c1.11,0.07,2.45,0.85,2.25,2.05
	c-0.14,0.85-0.98,1.3-1.69,1.67c-2.4,1.23-4.55,3.04-6.25,5.27c-0.18,0.24-0.36,0.49-0.42,0.79c-0.12,0.64,0.37,1.26,0.94,1.45
	s1.18,0.08,1.77-0.04c-1.92,2.17-4.66,3.44-7.42,3.42c-0.83-1.21-0.84-2.89-0.49-4.36c1.98-8.15,2.76-22.1,13.57-18.04
	C258.08,247.01,255.58,247.68,254.32,249.52z"/>
<circle cx="213.64" cy="329.76" r="1.83"/>
<circle cx="151.31" cy="333.43" r="1.83"/>
<circle cx="138.94" cy="340.92" r="1.83"/>
<circle cx="147.65" cy="351.08" r="1.83"/>
<circle cx="223.3" cy="342.75" r="1.83"/>
<circle cx="225.13" cy="327.93" r="1.83"/>
<path class="st0" d="M185.51,338.37c-0.87,0.29-1.77,0.64-2.4,1.3c-0.64,0.66-0.94,1.74-0.45,2.52c0.59,0.95,1.93,1.02,3.04,0.93
	c3.55-0.31,7.03-1.19,10.58-1.61c2.54-0.3,5.2-0.36,7.7,0.25c2.07,0.5,4.84,2.81,6.98,1.94c3.06-1.24,2.38-4.49,0.23-5.9
	C204.89,333.66,191.87,336.23,185.51,338.37z"/>
</svg>
